<svg width="113" height="113" viewBox="0 0 113 113" fill="none" xmlns="http://www.w3.org/2000/svg">
<path d="M36.4211 9.33984H75.6437C90.5856 9.33984 102.726 21.4802 102.726 36.4221V75.6447C102.726 82.8273 99.8726 89.7158 94.7937 94.7947C89.7148 99.8736 82.8263 102.727 75.6437 102.727H36.4211C21.4792 102.727 9.33887 90.5866 9.33887 75.6447V36.4221C9.33887 29.2394 12.1922 22.351 17.2711 17.272C22.35 12.1931 29.2385 9.33984 36.4211 9.33984ZM35.4872 18.6785C31.029 18.6785 26.7534 20.4496 23.601 23.602C20.4486 26.7544 18.6776 31.03 18.6776 35.4882V76.5785C18.6776 85.8705 26.1952 93.3882 35.4872 93.3882H76.5775C81.0357 93.3882 85.3114 91.6172 88.4638 88.4648C91.6162 85.3123 93.3872 81.0367 93.3872 76.5785V35.4882C93.3872 26.1962 85.8696 18.6785 76.5775 18.6785H35.4872ZM80.5465 25.6826C82.0945 25.6826 83.5791 26.2975 84.6737 27.3921C85.7682 28.4867 86.3832 29.9713 86.3832 31.5193C86.3832 33.0673 85.7682 34.5518 84.6737 35.6464C83.5791 36.741 82.0945 37.356 80.5465 37.356C78.9985 37.356 77.5139 36.741 76.4193 35.6464C75.3247 34.5518 74.7098 33.0673 74.7098 31.5193C74.7098 29.9713 75.3247 28.4867 76.4193 27.3921C77.5139 26.2975 78.9985 25.6826 80.5465 25.6826ZM56.0324 32.6866C62.2243 32.6866 68.1627 35.1463 72.541 39.5247C76.9194 43.9031 79.3792 49.8414 79.3792 56.0334C79.3792 62.2253 76.9194 68.1637 72.541 72.542C68.1627 76.9204 62.2243 79.3801 56.0324 79.3801C49.8404 79.3801 43.9021 76.9204 39.5237 72.542C35.1454 68.1637 32.6856 62.2253 32.6856 56.0334C32.6856 49.8414 35.1454 43.9031 39.5237 39.5247C43.9021 35.1463 49.8404 32.6866 56.0324 32.6866ZM56.0324 42.0253C52.3172 42.0253 48.7542 43.5012 46.1272 46.1282C43.5002 48.7552 42.0243 52.3182 42.0243 56.0334C42.0243 59.7485 43.5002 63.3115 46.1272 65.9386C48.7542 68.5656 52.3172 70.0414 56.0324 70.0414C59.7476 70.0414 63.3106 68.5656 65.9376 65.9386C68.5646 63.3115 70.0405 59.7485 70.0405 56.0334C70.0405 52.3182 68.5646 48.7552 65.9376 46.1282C63.3106 43.5012 59.7476 42.0253 56.0324 42.0253Z" fill="white"/>
</svg>
