<svg width="113" height="113" viewBox="0 0 113 113" fill="none" xmlns="http://www.w3.org/2000/svg">
<path d="M88.9561 22.9279C84.6746 18.6046 79.5755 15.1766 73.9559 12.8438C68.3363 10.511 62.3085 9.31994 56.224 9.3401C30.7293 9.3401 9.9507 30.1187 9.9507 55.6134C9.9507 63.7847 12.0986 71.7226 16.1142 78.7267L9.57715 102.727L34.0912 96.2834C40.8618 99.9722 48.4729 101.933 56.224 101.933C81.7186 101.933 102.497 81.1547 102.497 55.6601C102.497 43.2863 97.6878 31.6596 88.9561 22.9279ZM56.224 94.0888C49.3133 94.0888 42.5428 92.2211 36.6127 88.7191L35.2119 87.8786L20.6435 91.7075L24.5191 77.5126L23.5852 76.0651C19.7449 69.9345 17.7061 62.8475 17.7018 55.6134C17.7018 34.4145 34.9784 17.1379 56.1773 17.1379C66.4499 17.1379 76.1154 21.1536 83.3529 28.4377C86.9372 32.0045 89.7776 36.2474 91.7093 40.9205C93.641 45.5935 94.6257 50.6036 94.6061 55.6601C94.6994 76.8589 77.4228 94.0888 56.224 94.0888ZM77.3294 65.3256C76.1621 64.7653 70.4655 61.9637 69.4382 61.5435C68.3643 61.1699 67.6172 60.9831 66.8234 62.1038C66.0296 63.2711 63.835 65.886 63.1813 66.633C62.5276 67.4268 61.8272 67.5202 60.6599 66.9132C59.4925 66.3529 55.757 65.0922 51.3678 61.1699C47.9125 58.0881 45.6245 54.306 44.9241 53.1386C44.2704 51.9713 44.8308 51.3643 45.4378 50.7572C45.9514 50.2436 46.6051 49.4031 47.1654 48.7494C47.7258 48.0957 47.9592 47.5821 48.3328 46.835C48.7063 46.0412 48.5195 45.3875 48.2394 44.8272C47.9592 44.2668 45.6245 38.5702 44.6907 36.2356C43.7568 33.9943 42.7762 34.2744 42.0758 34.2277H39.8345C39.0408 34.2277 37.8267 34.5079 36.7528 35.6752C35.7255 36.8426 32.7371 39.6442 32.7371 45.3408C32.7371 51.0374 36.8929 56.5472 37.4532 57.2943C38.0135 58.0881 45.6245 69.7615 57.2045 74.7577C59.9595 75.9718 62.1074 76.6722 63.7883 77.1858C66.5432 78.073 69.0647 77.9329 71.0725 77.6527C73.3138 77.3259 77.9365 74.8511 78.8703 72.1429C79.8509 69.4347 79.8509 67.1467 79.524 66.633C79.1972 66.1194 78.4968 65.8859 77.3294 65.3256Z" fill="white"/>
</svg>
