<svg width="113" height="113" viewBox="0 0 113 113" fill="none" xmlns="http://www.w3.org/2000/svg">
<path d="M30.9128 50.3821C37.6367 63.5963 48.4696 74.3825 61.6838 81.1531L71.9564 70.8805C73.2171 69.6198 75.0849 69.1996 76.7192 69.7599C81.9488 71.4875 87.5988 72.4214 93.3887 72.4214C95.9569 72.4214 98.0581 74.5226 98.0581 77.0908V93.3868C98.0581 95.9549 95.9569 98.0562 93.3887 98.0562C49.5435 98.0562 14.0098 62.5224 14.0098 18.6772C14.0098 16.109 16.111 14.0078 18.6791 14.0078H35.0219C37.59 14.0078 39.6912 16.109 39.6912 18.6772C39.6912 24.5139 40.6251 30.1171 42.3527 35.3468C42.8664 36.981 42.4928 38.8021 41.1854 40.1095L30.9128 50.3821Z" fill="white"/>
</svg>
