<svg width="113" height="113" viewBox="0 0 113 113" fill="none" xmlns="http://www.w3.org/2000/svg">
<path d="M93.3872 84.0467H84.0485V43.1899L56.0324 60.7L28.0163 43.1899V84.0467H18.6776V28.0145H24.2808L56.0324 47.8592L87.784 28.0145H93.3872M93.3872 18.6758H18.6776C13.4946 18.6758 9.33887 22.8315 9.33887 28.0145V84.0467C9.33887 86.5235 10.3228 88.8988 12.0741 90.6502C13.8255 92.4015 16.2008 93.3854 18.6776 93.3854H93.3872C95.864 93.3854 98.2393 92.4015 99.9907 90.6502C101.742 88.8988 102.726 86.5235 102.726 84.0467V28.0145C102.726 25.5377 101.742 23.1624 99.9907 21.411C98.2393 19.6597 95.864 18.6758 93.3872 18.6758Z" fill="white"/>
</svg>
