<svg width="42" height="42" viewBox="0 0 42 42" fill="none" xmlns="http://www.w3.org/2000/svg">
<path d="M14.3373 19.6985L19.6985 14.3232L14.8795 9.48776L12.159 12.2059L10.4971 10.544L13.2035 7.82588L8.62161 3.24396L3.24631 8.61926L14.3373 19.6985ZM32.726 38.1013L38.1013 32.726L33.5217 28.1441L30.8035 30.8481L29.144 29.1863L31.8457 26.4681L27.0573 21.6937L21.6937 27.0549L32.726 38.1013ZM9.74831 39.0449H2.34729V31.6415L12.6613 21.3275L0 8.62161L8.62161 0L21.3885 12.72L31.8739 2.22054C32.1321 1.96077 32.4044 1.77377 32.6908 1.65954C32.9771 1.5453 33.2823 1.48818 33.6062 1.48818C33.9301 1.48818 34.2353 1.5453 34.5217 1.65954C34.808 1.77377 35.0811 1.96077 35.3409 2.22054L39.1716 6.20155C39.4314 6.45975 39.6114 6.73204 39.7115 7.01841C39.8117 7.30478 39.861 7.60993 39.8594 7.93385C39.8578 8.25778 39.8078 8.55354 39.7092 8.82113C39.6106 9.08872 39.4322 9.35162 39.174 9.60982L28.7755 20.0647L41.3945 32.7706L32.7682 41.3922L20.0623 28.7309L9.74831 39.0449ZM4.69459 36.6976H8.74837L31.7988 13.6613L27.7286 9.59574L4.69459 32.6438V36.6976ZM29.7919 11.6144L27.7309 9.59574L31.7964 13.6636L29.7919 11.6144Z" fill="white"/>
</svg>
